<svg xmlns="http://www.w3.org/2000/svg" width="80" height="20" viewBox="0 0 80 20">
  <g id="logo" transform="translate(0 -1)">
    <path id="パス_14" data-name="パス 14" d="M25.312,1,19.578,21H17.309L12.636,4.384,8,21H5.8L0,1H2.595l4.5,16.045L11.535,1h2.377l4.443,16.191L22.839,1Z" transform="translate(0 0)" fill="#fff"/>
    <path id="パス_15" data-name="パス 15" d="M265.741,21H252.412V1h13.329V3.15h-10.8V8.976h10.53v2.15h-10.53V18.85h10.8Z" transform="translate(-214.99 0)" fill="#fff"/>
    <path id="パス_16" data-name="パス 16" d="M424.515,21V1h4.932a17.057,17.057,0,0,1,6.793,1.1,8.725,8.725,0,0,1,3.906,3.364,10.178,10.178,0,0,1,1.433,5.554,10.032,10.032,0,0,1-2.711,7.034Q436.158,21,429.5,21Zm2.527-17.9V18.9h2.636q4.85,0,7.051-2a7.6,7.6,0,0,0,2.2-5.919,7.553,7.553,0,0,0-2.228-5.8Q434.473,3.1,429.678,3.1h-2.636Z" transform="translate(-361.58 0)" fill="#fff"/>
  </g>
</svg>
